<svg aria-hidden="true" style="position: absolute; width: 0; height: 0; overflow: hidden;" version="1.1" xmlns="http://www.w3.org/2000/svg" xmlns:xlink="http://www.w3.org/1999/xlink">
<defs>
<symbol id="icon-arrow_left" viewBox="0 0 18 32">
<path fill="none" stroke-linejoin="round" stroke-linecap="round" stroke-miterlimit="4" stroke-width="3.4286" d="M16 29.714l-13.714-13.714 13.714-13.714"></path>
</symbol>
<symbol id="icon-arrow_right" viewBox="0 0 18 32">
<path fill="none" stroke-linejoin="round" stroke-linecap="round" stroke-miterlimit="1" stroke-width="3.4286" d="M2.286 29.714l13.714-13.714-13.714-13.714"></path>
</symbol>
<symbol id="icon-calendar" viewBox="0 0 32 32">
<path fill="#f66f4d" style="fill: var(--color2, #f66f4d)" d="M12.891 12.709v10.666h-1.351v-9.218h-0.025c-0.576 0.313-1.765 1.039-2.516 1.553v-1.391c0.842-0.591 1.718-1.127 2.624-1.61h1.268z"></path>
<path fill="#f66f4d" style="fill: var(--color2, #f66f4d)" d="M18.671 23.579c-2.215 0-3.311-1.534-3.404-2.814h1.369c0.084 0.738 0.77 1.639 2.1 1.639 1.686 0 2.602-1.696 2.609-4.327h-0.054c-0.305 0.83-1.273 1.58-2.767 1.58-1.703 0-3.35-1.221-3.35-3.54 0-2.274 1.74-3.618 3.594-3.618 2.343 0 3.906 1.47 3.906 5.337 0 3.609-1.484 5.743-4.002 5.743zM18.804 18.491c0.007 0 0.016 0 0.025 0 1.294 0 2.343-1.049 2.343-2.343 0-0.005-0-0.010-0-0.016v0.001c0-1.664-1.054-2.462-2.319-2.462-1.172 0-2.338 0.775-2.338 2.42 0 1.634 1.088 2.4 2.289 2.4z"></path>
<path fill="#f66f4d" style="fill: var(--color2, #f66f4d)" d="M7.707 0.293c-0.181-0.181-0.431-0.292-0.706-0.292-0.552 0-0.999 0.447-0.999 0.999v0.999h-2.001c-2.209 0-4 1.791-4 4 0 0.001 0 0.002 0 0.003v-0 22.001c0.001 2.208 1.792 3.998 4 3.998 0 0 0 0 0 0h24c2.209 0 4-1.791 4-4v0-22.001c-0.001-2.208-1.792-3.998-4-3.998 0 0 0 0 0 0h-2.001v-1.002c0-0.552-0.447-0.999-0.999-0.999s-0.999 0.447-0.999 0.999v0 0.999h-16v-0.999c-0.001-0.275-0.113-0.524-0.293-0.704v0zM2.001 28v-20h27.998v20c0 0.001 0 0.002 0 0.002 0 1.104-0.895 1.999-1.999 1.999h-24c-0.001 0-0.002 0-0.002 0-1.104 0-1.999-0.895-1.999-1.999 0-0.001 0-0.002 0-0.003v0z"></path>
</symbol>
<symbol id="icon-facebook" viewBox="0 0 16 32">
<path  d="M10.387 32v-13.872h4.717l0.704-5.925h-5.421v-3.784c0-1.715 0.44-2.883 2.712-2.883l2.901-0.003v-5.299c-1.231-0.15-2.655-0.235-4.1-0.235-0.044 0-0.089 0-0.133 0l0.007-0c-4.181 0-7.043 2.763-7.043 7.832v4.371h-4.731v5.925h4.731v13.872h5.653z"></path>
</symbol>
<symbol id="icon-geo" viewBox="0 0 22 32">
<path fill="#f66f4d" style="fill: var(--color2, #f66f4d)" d="M22.154 11.2c0-1.472-0.286-2.929-0.844-4.286-0.586-1.412-1.397-2.619-2.401-3.634l0.001 0.001c-1.001-1.013-2.195-1.834-3.522-2.402l-0.072-0.027c-1.253-0.54-2.712-0.854-4.244-0.854-3.064 0-5.835 1.256-7.826 3.282l-0.002 0.002c-2.004 2.037-3.242 4.833-3.244 7.918v0.001c0 2.22 0.65 4.283 1.748 6.023h-0.012c3.734 5.915 9.342 14.777 9.342 14.777l9.342-14.777h-0.012c1.14-1.797 1.748-3.889 1.748-6.023zM11.077 16c-1.314-0.001-2.502-0.538-3.357-1.405l-0-0.001c-0.862-0.872-1.395-2.071-1.395-3.394s0.533-2.523 1.396-3.395l-0 0c0.856-0.867 2.044-1.405 3.357-1.406h0c1.258 0 2.466 0.505 3.358 1.406 0.862 0.872 1.395 2.071 1.395 3.394s-0.533 2.523-1.396 3.395l0-0c-0.856 0.867-2.044 1.405-3.357 1.406h-0z"></path>
</symbol>
<symbol id="icon-insta" viewBox="0 0 32 32">
<path d="M5.52 0.84c1.016-0.395 2.181-0.667 3.883-0.744 1.707-0.080 2.253-0.096 6.6-0.096s4.891 0.019 6.595 0.096c1.704 0.077 2.867 0.347 3.885 0.744 1.051 0.408 1.944 0.955 2.832 1.845 0.891 0.891 1.437 1.781 1.845 2.835 0.397 1.016 0.667 2.181 0.747 3.883 0.075 1.707 0.093 2.253 0.093 6.597 0 4.347-0.019 4.888-0.096 6.597-0.077 1.701-0.347 2.867-0.744 3.883-0.424 1.109-1.052 2.055-1.844 2.834l-0.001 0.001c-0.78 0.793-1.726 1.42-2.781 1.827l-0.054 0.018c-1.016 0.395-2.179 0.667-3.883 0.744-1.707 0.080-2.251 0.096-6.597 0.096s-4.888-0.019-6.597-0.096c-1.701-0.080-2.864-0.347-3.883-0.744-1.109-0.425-2.055-1.052-2.834-1.844l-0.001-0.001c-0.794-0.779-1.422-1.725-1.827-2.781l-0.018-0.054c-0.395-1.013-0.667-2.181-0.744-3.883-0.080-1.707-0.096-2.253-0.096-6.597 0-4.347 0.019-4.891 0.096-6.597 0.080-1.701 0.347-2.867 0.744-3.883 0.408-1.053 0.955-1.947 1.845-2.835 0.78-0.793 1.725-1.421 2.781-1.827l0.054-0.018zM16 10.667c-2.946 0-5.333 2.388-5.333 5.333s2.388 5.333 5.333 5.333v0c2.946 0 5.333-2.388 5.333-5.333s-2.388-5.333-5.333-5.333v0zM7.112 16c0-4.909 3.979-8.888 8.888-8.888s8.888 3.979 8.888 8.888v0c0 4.909-3.979 8.888-8.888 8.888s-8.888-3.979-8.888-8.888v0zM26.667 7.112c0.982 0 1.779-0.796 1.779-1.779s-0.796-1.779-1.779-1.779v0c-0.982 0-1.779 0.796-1.779 1.779s0.796 1.779 1.779 1.779v0z"></path>
</symbol>
<symbol id="icon-logo" viewBox="0 0 90 32">
<path d="M25.744 0c1.028 0 1.861 0.844 1.861 1.884v5.952h5.97c-0.027 3.73-0.016 8.549-0.007 12.929 0.004 1.859 0.007 3.639 0.008 5.221 1.883 1.109 3.619 2.601 4.824 4.944l-0.883-0.671c-2.053-1.559-5.394-2.901-8.43-3.385-1.755-0.281-5.143-0.010-6.937 0.552l-0.393 0.123 0.538 0.317c0.762 0.448 1.475 1.157 1.687 1.68 0.201 0.495 0.256 0.508 1.386 0.331 1.316-0.205 5.692-0.106 5.175 0.117-0.104 0.045-0.681 0.115-1.285 0.158-1.987 0.139-4.512 0.608-5.961 1.107-0.157 0.055-0.282-0.098-0.516-0.628-0.732-1.658-2.43-3.096-4.369-3.7l-0.528-0.165 0.616 0.063c0.652 0.066 1.95 0.309 2.38 0.445 0.219 0.070 0.242 0.043 0.155-0.186-0.466-1.243-1.816-2.665-3.259-3.435-1.29-0.688-2.422-0.931-4.046-0.866-1.257 0.049-2.768 0.344-2.768 0.538 0 0.048 0.090 0.403 0.198 0.79 0.35 1.24 0.511 2.558 0.37 3.039-0.079 0.271-0.135 0.346-0.144 0.192-0.027-0.485-0.71-1.869-1.353-2.737-1.877-2.538-4.856-3.853-8.728-3.853h-1.307c0.003-3.514 0.005-9.408 0.004-12.922h5.802v-5.951c0-1.040 0.833-1.884 1.861-1.884h18.076zM8.353 7.835v-5.257h16.705v5.257h-16.705zM16.408 11.581c-0.281 0.155-0.511 0.332-0.511 0.393s0.404 0.453 0.898 0.872c1.257 1.068 2.825 2.677 2.776 2.849-0.023 0.080-0.745 0.554-1.605 1.055l-1.563 0.912-1.349-0.139c-1.25-0.13-1.368-0.125-1.622 0.062-0.407 0.299-0.347 0.434 0.402 0.898 0.594 0.368 0.684 0.477 0.72 0.874 0.037 0.4 0.085 0.459 0.408 0.489 0.32 0.030 0.387 0.106 0.514 0.59 0.080 0.305 0.146 0.655 0.146 0.776 0 0.293 0.326 0.38 0.807 0.218 0.331-0.112 0.452-0.28 0.786-1.097l0.394-0.966 1.782-0.747c0.98-0.41 1.819-0.749 1.865-0.752 0.149-0.008 0.955 1.562 1.573 3.056 0.363 0.881 0.674 1.46 0.795 1.481 0.11 0.018 0.454-0.070 0.763-0.199l0.564-0.233-0.093-0.83c-0.090-0.805-0.081-0.837 0.27-1.061 0.471-0.302 0.455-0.473-0.074-0.809l-0.436-0.277 0.436-0.297c0.557-0.38 0.549-0.55-0.043-0.861-0.452-0.238-0.478-0.285-0.479-0.877l-0.002-0.624 1.591-0.762c1.692-0.811 2.506-1.429 2.959-2.246 0.144-0.262 0.225-0.574 0.178-0.693-0.123-0.315-0.963-0.47-1.823-0.338-0.981 0.152-1.491 0.344-2.952 1.112-0.704 0.37-1.349 0.673-1.433 0.673s-0.427-0.133-0.762-0.298c-0.5-0.245-0.623-0.372-0.689-0.711-0.091-0.466-0.336-0.592-0.847-0.433-0.515 0.158-0.607 0.136-0.607-0.149 0-0.142-0.082-0.347-0.183-0.46-0.161-0.179-0.241-0.187-0.686-0.069-0.473 0.128-0.549 0.112-1.29-0.261-0.433-0.217-0.85-0.396-0.927-0.398s-0.369 0.124-0.651 0.279z"></path>
<path d="M7.893 27.877c3.191 0.289 5.433 1.527 6.405 3.538 0.362 0.75 0.282 0.768-0.559 0.121-2.107-1.622-4.483-2.638-7.778-3.325-2.884-0.602 1.083-0.41 1.932-0.334zM48.939 9.746c0.691 0 1.322 0.095 1.893 0.286 0.572 0.19 1.054 0.411 1.447 0.66v2.447c-0.376-0.234-0.827-0.478-1.292-0.696l-0.083-0.035c-0.488-0.227-1.042-0.34-1.661-0.34-0.309 0-0.619 0.048-0.928 0.143-0.298 0.096-0.549 0.238-0.75 0.43-0.191 0.19-0.286 0.434-0.286 0.731 0 0.393 0.173 0.69 0.517 0.893 0.346 0.201 0.768 0.404 1.268 0.607l1.465 0.607c0.833 0.357 1.446 0.792 1.839 1.303s0.59 1.095 0.59 1.751c0 0.713-0.208 1.344-0.625 1.893-0.404 0.536-0.952 0.958-1.643 1.268-0.678 0.309-1.434 0.464-2.267 0.464-0.702 0-1.375-0.119-2.018-0.357-0.641-0.233-1.195-0.528-1.7-0.889l0.021 0.014v-2.448c0.5 0.366 1.071 0.689 1.677 0.944l0.055 0.021c0.631 0.262 1.303 0.393 2.017 0.393 0.5 0 0.929-0.096 1.286-0.286 0.357-0.202 0.536-0.5 0.536-0.893 0-0.309-0.149-0.56-0.447-0.75-0.273-0.194-0.585-0.363-0.917-0.49l-0.029-0.010-1.839-0.714c-0.929-0.357-1.56-0.822-1.893-1.393-0.304-0.545-0.483-1.195-0.483-1.888 0-0.014 0-0.028 0-0.043l-0 0.002c0-0.726 0.197-1.357 0.589-1.893 0.407-0.545 0.936-0.976 1.548-1.258l0.025-0.010c0.599-0.293 1.304-0.465 2.049-0.465 0.014 0 0.027 0 0.041 0h-0.002zM58.636 12.693c0.539 0.006 1.047 0.13 1.503 0.348l-0.022-0.009c0.493 0.22 0.91 0.528 1.248 0.908l0.003 0.004v-1.018h2.267v9.018h-2.267v-1.518c-0.285 0.513-0.67 0.937-1.131 1.26l-0.012 0.008c-0.5 0.345-1.083 0.517-1.75 0.517-0.726 0-1.399-0.185-2.018-0.553-0.607-0.369-1.095-0.905-1.465-1.607s-0.553-1.554-0.553-2.554c0-1 0.185-1.858 0.553-2.572 0.381-0.714 0.887-1.262 1.518-1.643 0.594-0.37 1.316-0.589 2.088-0.589 0.013 0 0.026 0 0.039 0h-0.002zM59.1 14.907c-0.476 0-0.887 0.124-1.232 0.375-0.334 0.238-0.595 0.553-0.786 0.946s-0.285 0.816-0.285 1.268c0 0.678 0.202 1.255 0.607 1.732 0.417 0.476 0.965 0.715 1.643 0.715 0.003 0 0.006 0 0.009 0 0.414 0 0.799-0.12 1.124-0.327l-0.008 0.005c0.361-0.22 0.651-0.522 0.851-0.881l0.006-0.012c0.226-0.393 0.339-0.863 0.339-1.411v-1.285c-0.298-0.325-0.646-0.599-1.032-0.811l-0.021-0.010c-0.344-0.191-0.754-0.304-1.19-0.304-0.008 0-0.017 0-0.025 0h0.001zM68.689 9.086v12.857h-2.267v-12.858h2.267zM74.725 10.3v2.624h2.5v1.893h-2.501v3.893c0 0.405 0.089 0.726 0.267 0.965 0.191 0.226 0.471 0.338 0.839 0.338 0.322 0 0.595-0.035 0.822-0.107 0.238-0.071 0.458-0.172 0.66-0.304v1.804c-0.226 0.226-0.512 0.417-0.857 0.571-0.334 0.155-0.756 0.232-1.268 0.232-0.809 0-1.47-0.256-1.982-0.768-0.5-0.524-0.75-1.238-0.75-2.143v-4.482h-1.625v-1.161c0.571-0.201 1.095-0.582 1.571-1.143 0.488-0.559 0.875-1.297 1.161-2.213h1.161zM81.064 12.924l2.572 5.751 2.5-5.751h2.589l-6.554 13.305h-2.572l2.715-4.946-3.894-8.357h2.643z"></path>
</symbol>
<symbol id="icon-plane" viewBox="0 0 34 32">
<path d="M0 18.042l8.631 3.746 20.011-15.659-15.695 17.7v8.171l5.886-6.468 9.807 3.405 5.493-28.937-34.133 18.042z"></path>
</symbol>
<symbol id="icon-search" viewBox="0 0 32 32">
<path fill="none" stroke="#fff" style="stroke: var(--color4, #fff)" stroke-linejoin="round" stroke-linecap="round" stroke-miterlimit="4" stroke-width="2.2857" d="M14.505 24.96c5.772 0 10.452-4.68 10.452-10.452s-4.68-10.452-10.452-10.452v0c-5.772 0-10.451 4.679-10.451 10.451s4.679 10.451 10.451 10.451v0zM21.897 21.897l6.046 6.048"></path>
</symbol>
<symbol id="icon-stars" viewBox="0 0 203 32">
<path fill="#ffc14b" style="fill: var(--color5, #ffc14b)" d="M76.546 12.058c-0.167-0.483-0.467-0.885-0.856-1.174l-0.007-0.005c-0.392-0.291-0.877-0.477-1.405-0.508l-0.007-0-9.256-0.608-3.426-8.222c-0.188-0.454-0.514-0.843-0.937-1.118-0.404-0.264-0.899-0.422-1.43-0.424h-0c-0.514 0.002-1.013 0.151-1.434 0.424-0.415 0.27-0.738 0.652-0.929 1.102l-0.006 0.016-3.488 8.265-9.193 0.565c-0.534 0.033-1.018 0.22-1.417 0.515l0.007-0.005c-0.405 0.301-0.706 0.712-0.864 1.176-0.082 0.23-0.13 0.496-0.13 0.773 0 0.245 0.037 0.481 0.106 0.703l-0.004-0.017c0.145 0.478 0.437 0.904 0.838 1.224l7.074 5.688-2.103 7.868c-0.147 0.531-0.12 1.092 0.075 1.611 0.194 0.518 0.548 0.968 1.016 1.291 0.458 0.314 1.025 0.502 1.635 0.502 0.553 0 1.069-0.154 1.51-0.421l-0.013 0.007 7.304-4.399h0.032l7.868 4.725c0.387 0.241 0.857 0.384 1.361 0.384 0.814 0 1.541-0.374 2.018-0.959l0.004-0.005c0.327-0.398 0.525-0.912 0.525-1.473 0-0.229-0.033-0.45-0.095-0.66l0.004 0.016-2.227-8.608 7.042-5.57c0.401-0.32 0.693-0.745 0.838-1.224 0.064-0.205 0.101-0.441 0.101-0.686 0-0.277-0.047-0.543-0.135-0.79l0.005 0.017zM160.081 12.058c-0.167-0.484-0.468-0.885-0.857-1.174l-0.007-0.005c-0.392-0.291-0.877-0.477-1.405-0.508l-0.007-0-9.256-0.608-3.426-8.222c-0.188-0.454-0.514-0.843-0.936-1.118-0.405-0.265-0.901-0.423-1.434-0.424h-0c-0.51 0.002-1.011 0.151-1.432 0.424-0.415 0.27-0.738 0.652-0.929 1.102l-0.006 0.016-3.49 8.265-9.192 0.565c-0.534 0.033-1.020 0.219-1.419 0.515l0.007-0.005c-0.395 0.293-0.695 0.694-0.859 1.159l-0.005 0.017c-0.081 0.23-0.129 0.494-0.129 0.77 0 0.246 0.037 0.483 0.107 0.705l-0.004-0.017c0.143 0.478 0.435 0.904 0.836 1.224l7.074 5.688-2.103 7.868c-0.145 0.531-0.12 1.092 0.075 1.611 0.194 0.518 0.548 0.968 1.016 1.291 0.458 0.314 1.025 0.502 1.635 0.502 0.553 0 1.069-0.154 1.51-0.421l-0.013 0.007 7.305-4.399h0.032l7.868 4.725c0.387 0.241 0.856 0.383 1.359 0.383 0.814 0 1.54-0.373 2.018-0.958l0.004-0.005c0.326-0.397 0.524-0.911 0.524-1.471 0-0.23-0.033-0.452-0.095-0.661l0.004 0.016-2.225-8.608 7.042-5.57c0.401-0.32 0.693-0.745 0.838-1.224 0.065-0.206 0.102-0.443 0.102-0.689 0-0.276-0.047-0.541-0.134-0.787l0.005 0.017zM201.847 12.058c-0.168-0.483-0.467-0.885-0.856-1.174l-0.006-0.005c-0.393-0.291-0.879-0.477-1.406-0.508l-0.007-0-9.254-0.608-3.428-8.222c-0.188-0.454-0.514-0.843-0.936-1.118-0.405-0.265-0.9-0.423-1.432-0.424h-0c-0.512 0.002-1.011 0.151-1.434 0.424-0.414 0.271-0.736 0.652-0.928 1.102l-0.006 0.016-3.494 8.265-9.192 0.565c-0.534 0.033-1.020 0.219-1.419 0.515l0.007-0.005c-0.405 0.301-0.706 0.712-0.864 1.176-0.081 0.23-0.129 0.494-0.129 0.77 0 0.246 0.037 0.483 0.107 0.705l-0.005-0.017c0.145 0.478 0.437 0.904 0.838 1.224l7.074 5.688-2.104 7.868c-0.145 0.531-0.119 1.092 0.075 1.611 0.194 0.518 0.548 0.968 1.016 1.291 0.458 0.314 1.025 0.502 1.635 0.502 0.553 0 1.069-0.154 1.51-0.421l-0.013 0.007 7.305-4.399h0.032l7.868 4.725c0.387 0.242 0.858 0.386 1.362 0.386 0.814 0 1.541-0.374 2.017-0.961l0.004-0.005c0.326-0.399 0.524-0.914 0.524-1.476 0-0.228-0.033-0.448-0.093-0.657l0.004 0.017-2.229-8.608 7.042-5.57c0.403-0.32 0.695-0.745 0.838-1.224 0.065-0.206 0.102-0.443 0.102-0.689 0-0.276-0.047-0.541-0.134-0.787l0.005 0.017zM34.78 12.058c-0.167-0.483-0.467-0.885-0.856-1.174l-0.007-0.005c-0.392-0.291-0.877-0.477-1.405-0.508l-0.007-0-9.256-0.608-3.43-8.222c-0.188-0.454-0.514-0.843-0.936-1.118-0.404-0.264-0.899-0.422-1.43-0.424h-0c-0.514 0.002-1.011 0.151-1.436 0.424-0.414 0.271-0.736 0.652-0.928 1.102l-0.006 0.016-3.49 8.265-9.193 0.565c-0.534 0.033-1.020 0.219-1.419 0.515l0.007-0.005c-0.394 0.293-0.694 0.694-0.857 1.159l-0.005 0.017c-0.082 0.23-0.13 0.496-0.13 0.773 0 0.245 0.037 0.481 0.106 0.703l-0.004-0.017c0.145 0.478 0.437 0.904 0.838 1.224l7.074 5.688-2.104 7.868c-0.145 0.531-0.119 1.092 0.075 1.611 0.196 0.518 0.55 0.968 1.016 1.291 0.458 0.314 1.025 0.502 1.635 0.502 0.553 0 1.069-0.154 1.51-0.421l-0.013 0.007 7.305-4.399h0.032l7.868 4.725c0.387 0.241 0.857 0.384 1.361 0.384 0.814 0 1.541-0.374 2.018-0.959l0.004-0.005c0.327-0.398 0.525-0.912 0.525-1.473 0-0.229-0.033-0.45-0.095-0.66l0.004 0.016-2.229-8.608 7.044-5.57c0.401-0.32 0.693-0.745 0.836-1.224 0.065-0.206 0.102-0.443 0.102-0.689 0-0.276-0.047-0.541-0.134-0.787l0.005 0.017zM118.313 12.058c-0.167-0.483-0.467-0.885-0.856-1.174l-0.007-0.005c-0.392-0.291-0.877-0.477-1.405-0.508l-0.007-0-9.256-0.608-3.428-8.222c-0.188-0.454-0.514-0.843-0.936-1.118-0.405-0.265-0.9-0.423-1.432-0.424h-0c-0.512 0.002-1.011 0.151-1.434 0.424-0.414 0.271-0.736 0.652-0.928 1.102l-0.006 0.016-3.492 8.265-9.192 0.565c-0.534 0.033-1.020 0.219-1.419 0.515l0.007-0.005c-0.395 0.293-0.695 0.694-0.859 1.159l-0.005 0.017c-0.081 0.23-0.129 0.494-0.129 0.77 0 0.246 0.037 0.483 0.107 0.705l-0.004-0.017c0.145 0.478 0.437 0.904 0.838 1.224l7.074 5.688-2.104 7.868c-0.145 0.531-0.119 1.092 0.075 1.611 0.196 0.518 0.55 0.968 1.016 1.291 0.458 0.314 1.025 0.502 1.635 0.502 0.553 0 1.069-0.154 1.51-0.421l-0.013 0.007 7.305-4.399h0.032l7.868 4.725c0.387 0.241 0.857 0.384 1.361 0.384 0.814 0 1.541-0.374 2.018-0.959l0.004-0.005c0.327-0.398 0.525-0.912 0.525-1.473 0-0.229-0.033-0.45-0.095-0.659l0.004 0.016-2.229-8.608 7.042-5.57c0.403-0.32 0.695-0.745 0.838-1.224 0.065-0.206 0.102-0.443 0.102-0.689 0-0.276-0.047-0.541-0.134-0.787l0.005 0.017z"></path>
</symbol>
<symbol id="icon-twitter" viewBox="0 0 40 32">
<path d="M26.728 0.008v-0.008h1.875l0.685 0.133c0.456 0.088 0.872 0.205 1.243 0.347 0.373 0.141 0.736 0.307 1.083 0.496 0.349 0.189 0.667 0.384 0.949 0.579 0.28 0.195 0.533 0.4 0.757 0.619 0.221 0.221 0.565 0.277 1.035 0.171s0.976-0.253 1.515-0.443c0.541-0.189 1.077-0.403 1.605-0.64 0.531-0.237 0.853-0.387 0.968-0.453l0.179-0.107 0.008-0.008 0.035-0.019 0.037-0.019 0.037-0.016 0.035-0.019 0.008-0.011 0.011-0.008 0.011-0.005 0.008-0.011 0.035-0.011 0.037-0.008-0.008 0.053-0.011 0.053-0.037 0.107-0.016 0.035-0.019 0.037-0.019 0.053c-0.012 0.038-0.024 0.085-0.033 0.134l-0.001 0.008c-0.114 0.28-0.229 0.514-0.359 0.738l0.015-0.028c-0.461 0.857-1.022 1.591-1.68 2.224l-0.003 0.003c-0.261 0.221-0.432 0.373-0.517 0.461-0.090 0.095-0.19 0.177-0.3 0.247l-0.006 0.004-0.181 0.117-0.035 0.016-0.037 0.019-0.005 0.011-0.011 0.008-0.011 0.005-0.008 0.011-0.037 0.019-0.035 0.019-0.008 0.011-0.011 0.005-0.011 0.008-0.008 0.011-0.005 0.011-0.013 0.008-0.008 0.005-0.008 0.011h0.179l1.013-0.213c0.78-0.164 1.426-0.341 2.057-0.552l-0.129 0.037 1.133-0.373 0.037-0.016 0.037-0.019 0.035-0.019 0.037-0.016 0.072-0.011 0.072-0.008v0.072l-0.019 0.005-0.019 0.011-0.005 0.011-0.021 0.016-0.016 0.021-0.011 0.005-0.011 0.008-0.008 0.011-0.005 0.011-0.011 0.008-0.037 0.069-0.011 0.008-0.459 0.603c-0.299 0.4-0.461 0.6-0.485 0.605-0.027 0.005-0.059 0.043-0.101 0.107-0.040 0.067-0.296 0.331-0.765 0.792-0.427 0.423-0.876 0.826-1.345 1.206l-0.034 0.026c-0.413 0.304-0.68 0.787-0.685 1.332v0.001c-0.005 0.528-0.035 1.12-0.080 1.787-0.065 0.824-0.161 1.559-0.292 2.282l0.020-0.136c-0.133 0.771-0.336 1.64-0.613 2.611-0.584 2.030-1.352 3.798-2.313 5.439l0.060-0.111c-0.727 1.254-1.484 2.333-2.323 3.343l0.032-0.040c-0.373 0.448-0.845 0.955-1.413 1.52l-0.939 0.923c-0.196 0.169-0.426 0.359-0.659 0.545l-0.047 0.036c-0.379 0.313-0.813 0.646-1.259 0.965l-0.075 0.051c-0.475 0.336-0.912 0.616-1.307 0.843-0.4 0.224-0.877 0.48-1.437 0.771-0.557 0.291-1.16 0.56-1.811 0.808-0.648 0.248-1.333 0.48-2.053 0.693-0.723 0.213-1.421 0.379-2.093 0.499-0.675 0.117-1.437 0.219-2.291 0.301l-1.28 0.123v0.019h-2.347v-0.019l-0.304-0.016c-0.226-0.013-0.401-0.026-0.575-0.042l0.069 0.005c-0.133-0.011-0.629-0.077-1.496-0.195-0.813-0.103-1.505-0.227-2.185-0.383l0.147 0.028c-0.493-0.117-1.227-0.344-2.2-0.675-1.003-0.333-1.83-0.673-2.63-1.062l0.128 0.056c-1.002-0.466-1.428-0.68-1.852-0.897l0.553 0.257c-0.246-0.125-0.437-0.233-0.624-0.348l0.040 0.023-0.323-0.2-0.008-0.011-0.011-0.005-0.011-0.008-0.008-0.011-0.035-0.019-0.037-0.016-0.008-0.011-0.011-0.008-0.011-0.005-0.005-0.013-0.008-0.008-0.011-0.008h-0.019v-0.072l0.037 0.008 0.035 0.011 0.16 0.019c0.109 0.011 0.405 0.027 0.885 0.053 0.23 0.011 0.499 0.018 0.77 0.018 1.575 0 3.099-0.221 4.542-0.633l-0.116 0.028c0.771-0.203 1.477-0.44 2.12-0.72 0.643-0.277 1.099-0.485 1.371-0.624 0.269-0.133 0.68-0.384 1.235-0.752l0.829-0.552 0.008-0.011 0.011-0.005 0.011-0.008 0.005-0.011 0.008-0.011 0.011-0.005 0.011-0.008 0.008-0.011 0.037-0.011 0.035-0.008 0.008-0.035 0.011-0.035 0.011-0.008 0.008-0.011-0.291-0.019c-0.502-0.004-0.987-0.075-1.447-0.204l0.039 0.009c-0.485-0.125-0.898-0.271-1.295-0.447l0.052 0.021c-0.844-0.368-1.572-0.812-2.229-1.34l0.019 0.015c-0.25-0.235-0.485-0.471-0.712-0.714l-0.008-0.009c-0.566-0.599-1.033-1.3-1.369-2.071l-0.018-0.047-0.299-0.645-0.037-0.107-0.011-0.037-0.005-0.035 0.053 0.008 0.053 0.011 0.397 0.053c0.267 0.035 0.68 0.045 1.245 0.035 0.565-0.013 0.955-0.035 1.173-0.072 0.213-0.035 0.347-0.059 0.395-0.069l0.072-0.019 0.091-0.019 0.091-0.016 0.005-0.011 0.011-0.008 0.013-0.008 0.005-0.011-0.072-0.016-0.144-0.037-0.072-0.016-0.072-0.019c-0.131-0.033-0.215-0.058-0.299-0.084l0.046 0.012c-0.423-0.15-0.745-0.282-1.060-0.425l0.087 0.035c-0.485-0.199-0.9-0.42-1.29-0.676l0.028 0.017c-0.336-0.23-0.628-0.459-0.904-0.706l0.008 0.007c-0.328-0.307-0.631-0.629-0.911-0.969l-0.014-0.017c-0.659-0.829-1.172-1.806-1.481-2.871l-0.015-0.060c-0.122-0.427-0.215-0.929-0.259-1.444l-0.002-0.030-0.064-0.747 0.035 0.008 0.037 0.011 0.035 0.019 0.037 0.019 0.035 0.016 0.037 0.019 0.56 0.248c0.373 0.165 0.835 0.309 1.387 0.427 0.221 0.056 0.557 0.124 0.896 0.181l0.096 0.013 0.163 0.019h0.325l-0.008-0.011-0.011-0.008-0.011-0.005-0.016-0.021-0.021-0.016-0.005-0.011-0.037-0.016-0.035-0.019-0.008-0.011-0.011-0.008-0.011-0.005-0.008-0.011-0.035-0.019-0.037-0.019-0.008-0.011-0.309-0.227c-0.229-0.179-0.432-0.368-0.617-0.574l-0.004-0.004c-0.202-0.222-0.414-0.465-0.62-0.713l-0.028-0.034c-0.206-0.245-0.397-0.518-0.564-0.807l-0.015-0.028c-0.174-0.307-0.353-0.678-0.509-1.061l-0.024-0.067c-0.34-0.808-0.551-1.746-0.584-2.728l-0-0.013c-0.003-0.091-0.005-0.197-0.005-0.304 0-0.3 0.016-0.596 0.046-0.887l-0.003 0.036c0.035-0.32 0.107-0.683 0.213-1.083 0.109-0.403 0.267-0.829 0.472-1.28l0.307-0.675 0.016-0.053 0.019-0.053 0.011-0.008 0.016-0.021 0.011-0.005 0.011 0.005 0.005 0.011 0.008 0.011 0.021 0.016 0.016 0.021 0.011 0.005 0.019 0.037 0.016 0.035 0.011 0.008 0.008 0.011 0.488 0.533c0.323 0.355 0.709 0.749 1.152 1.189 0.445 0.437 0.693 0.667 0.741 0.68 0.048 0.019 0.107 0.075 0.179 0.165 0.072 0.085 0.315 0.296 0.72 0.627 1.108 0.866 2.353 1.679 3.666 2.382l0.139 0.068c0.808 0.427 1.675 0.811 2.6 1.155s1.573 0.568 1.947 0.675c0.373 0.107 1.011 0.243 1.912 0.408 0.901 0.168 1.581 0.275 2.037 0.32 0.456 0.048 0.771 0.075 0.939 0.080l0.253 0.011-0.008-0.053-0.011-0.053-0.072-0.445c-0.047-0.329-0.073-0.708-0.073-1.094 0-0.052 0-0.104 0.001-0.156l-0 0.008c0-0.533 0.040-1.024 0.125-1.475 0.101-0.527 0.232-0.986 0.398-1.428l-0.020 0.060c0.168-0.461 0.333-0.832 0.493-1.109 0.165-0.277 0.379-0.595 0.643-0.949 0.267-0.355 0.608-0.72 1.029-1.101 0.419-0.379 0.901-0.715 1.44-1.013 0.541-0.293 1.040-0.52 1.499-0.672 0.324-0.12 0.712-0.226 1.112-0.298l0.043-0.006c0.312-0.045 0.469-0.075 0.469-0.080z"></path>
</symbol>
<symbol id="icon-menu" viewBox="0 0 32 32">
<path d="M2 6h28v6h-28zM2 14h28v6h-28zM2 22h28v6h-28z"></path>
</symbol>
<symbol id="icon-cross" viewBox="0 0 32 32">
<path d="M31.708 25.708c-0-0-0-0-0-0l-9.708-9.708 9.708-9.708c0-0 0-0 0-0 0.105-0.105 0.18-0.227 0.229-0.357 0.133-0.356 0.057-0.771-0.229-1.057l-4.586-4.586c-0.286-0.286-0.702-0.361-1.057-0.229-0.13 0.048-0.252 0.124-0.357 0.228 0 0-0 0-0 0l-9.708 9.708-9.708-9.708c-0-0-0-0-0-0-0.105-0.104-0.227-0.18-0.357-0.228-0.356-0.133-0.771-0.057-1.057 0.229l-4.586 4.586c-0.286 0.286-0.361 0.702-0.229 1.057 0.049 0.13 0.124 0.252 0.229 0.357 0 0 0 0 0 0l9.708 9.708-9.708 9.708c-0 0-0 0-0 0-0.104 0.105-0.18 0.227-0.229 0.357-0.133 0.355-0.057 0.771 0.229 1.057l4.586 4.586c0.286 0.286 0.702 0.361 1.057 0.229 0.13-0.049 0.252-0.124 0.357-0.229 0-0 0-0 0-0l9.708-9.708 9.708 9.708c0 0 0 0 0 0 0.105 0.105 0.227 0.18 0.357 0.229 0.356 0.133 0.771 0.057 1.057-0.229l4.586-4.586c0.286-0.286 0.362-0.702 0.229-1.057-0.049-0.13-0.124-0.252-0.229-0.357z"></path>
</symbol>
</defs>
</svg>
